<svg width="64" height="64" viewBox="0 0 64 64" fill="none" xmlns="http://www.w3.org/2000/svg">
<path fill-rule="evenodd" clip-rule="evenodd" d="M30.8967 15C32.5535 15 33.8967 13.6569 33.8967 12C33.8967 10.3431 32.5535 9 30.8967 9C29.2398 9 27.8967 10.3431 27.8967 12C27.8967 13.6569 29.2398 15 30.8967 15ZM30.8967 17C33.6581 17 35.8967 14.7614 35.8967 12C35.8967 9.23858 33.6581 7 30.8967 7C28.1353 7 25.8967 9.23858 25.8967 12C25.8967 14.7614 28.1353 17 30.8967 17Z" fill="black"/>
<path fill-rule="evenodd" clip-rule="evenodd" d="M25.6115 20.8021C25.8269 18.6479 27.7171 17.056 29.8766 17.2103L30.8646 17.2809C33.1251 17.4423 34.8001 19.4476 34.5565 21.7006L34.448 22.7039L37.8966 24.5996C38.3425 24.8447 38.865 24.9107 39.3578 24.784L45.2682 23.2651C47.1566 22.7798 48.7121 24.7846 47.7729 26.4933C47.482 27.0225 46.9886 27.4108 46.4058 27.5691L39.2708 29.5072C38.3571 29.7555 37.3849 29.6715 36.5272 29.2702L33.8724 28.0282L33.093 35.2378C33.0646 35.5006 33.0198 35.7664 32.9819 35.9917C32.9734 36.0424 32.9652 36.091 32.9576 36.1371C32.9127 36.4102 32.8857 36.6118 32.8829 36.7804C32.8802 36.9443 32.9025 37.0179 32.9155 37.0473C32.9215 37.0609 32.937 37.0959 33.0214 37.1487L33.0621 37.1742L37.4562 40.5458C38.3017 41.0895 38.9121 41.9321 39.1647 42.9064L41.9188 53.5293C42.303 55.0112 41.4351 56.529 39.9632 56.9496C38.4406 57.3846 36.8584 56.4815 36.4587 54.9493L34.2437 46.4585C34.1094 45.9438 33.7756 45.5038 33.3162 45.2357L33.2679 45.2076L26.0067 39.8047C24.686 39.0077 23.9396 37.5204 24.0935 35.9821L24.9843 27.0742L22.4065 28.3631C21.9515 28.5906 21.6002 28.9831 21.4243 29.4605L19.3146 35.1868C18.6406 37.0163 16.107 37.1566 15.235 35.4127C14.9649 34.8726 14.9259 34.2459 15.1269 33.6764L17.5893 26.6995C17.9031 25.8105 18.5207 25.061 19.3332 24.583L25.5213 20.943C25.5721 20.9131 25.6056 20.8608 25.6115 20.8021ZM34.0996 25.9264L37.3747 27.4587C37.8036 27.6593 38.2897 27.7013 38.7465 27.5772L45.8815 25.639C45.9407 25.623 45.9907 25.5835 46.0203 25.5298C46.1156 25.3564 45.9577 25.1529 45.766 25.2022L39.8556 26.7211C38.87 26.9744 37.8249 26.8425 36.9331 26.3523L34.2151 24.8582L34.0996 25.9264ZM29.7341 19.2052C28.6544 19.1281 27.7093 19.924 27.6016 21.0011C27.5322 21.6946 27.1361 22.3134 26.5354 22.6668L20.3473 26.3069C19.941 26.5459 19.6322 26.9206 19.4753 27.3651L17.0129 34.342C16.9925 34.3998 16.9964 34.4635 17.0239 34.5183C17.1124 34.6953 17.3695 34.681 17.4379 34.4953L19.5476 28.7691C19.8994 27.8142 20.6019 27.0293 21.5121 26.5742L25.4559 24.6024L27.3319 23.6978L26.0836 36.1811C26.0056 36.9602 26.3895 37.7131 27.0659 38.1077L27.1141 38.1358L34.3754 43.5387C35.2678 44.0773 35.9154 44.9436 36.1789 45.9536L38.3939 54.4444C38.5102 54.8903 38.9707 55.1531 39.4137 55.0265C39.8421 54.9041 40.0946 54.4625 39.9828 54.0312L37.2287 43.4084C37.1003 42.9129 36.7868 42.4856 36.3528 42.2143L36.3121 42.1889L31.9162 38.8158C31.5377 38.5684 31.2588 38.2453 31.087 37.8577C30.9157 37.4711 30.8776 37.0806 30.8832 36.747C30.8887 36.4181 30.9387 36.0889 30.9841 35.8125C30.9942 35.7511 31.0041 35.692 31.0137 35.6348C31.0508 35.4142 31.0832 35.2212 31.1046 35.0228L32.5681 21.4857C32.6899 20.3591 31.8524 19.3565 30.7222 19.2758L29.7341 19.2052Z" fill="black"/>
<path fill-rule="evenodd" clip-rule="evenodd" d="M25.3243 37.5541C25.8468 37.7332 26.1251 38.3019 25.9459 38.8243L20.8055 53.8173C20.6068 54.3969 21.0375 55 21.6503 55C22.0313 55 22.3704 54.7583 22.4946 54.3981L27.0546 41.174C27.2347 40.6519 27.8039 40.3746 28.326 40.5546C28.8481 40.7347 29.1254 41.3039 28.9454 41.826L24.3854 55.05C23.983 56.2169 22.8846 57 21.6503 57C19.6652 57 18.2698 55.0464 18.9136 53.1686L24.0541 38.1757C24.2332 37.6532 24.8019 37.3749 25.3243 37.5541Z" fill="black"/>
</svg>
